<?xml version="1.0" encoding="UTF-8"?><svg id="Layer_1" xmlns="http://www.w3.org/2000/svg" xmlns:xlink="http://www.w3.org/1999/xlink" viewBox="0 0 316.95 270.68"><defs><style>.cls-1{fill:url(#linear-gradient-2);}.cls-2{fill:#0a1b27;stroke:url(#linear-gradient);stroke-miterlimit:10;}.cls-3{fill:url(#linear-gradient-6);}.cls-4{fill:url(#linear-gradient-5);}.cls-5{fill:url(#linear-gradient-7);}.cls-6{fill:url(#linear-gradient-3);}.cls-7{fill:url(#linear-gradient-4);}</style><linearGradient id="linear-gradient" x1="0" y1="135.34" x2="316.95" y2="135.34" gradientUnits="userSpaceOnUse"><stop offset="0" stop-color="#64c18d"/><stop offset=".21" stop-color="#61c196"/><stop offset=".55" stop-color="#5bc3af"/><stop offset=".96" stop-color="#53c6d5"/><stop offset="1" stop-color="#53c6d5"/><stop offset="1" stop-color="#53c6d5"/></linearGradient><linearGradient id="linear-gradient-2" x1="124.55" y1="122.39" x2="124.55" y2="140.98" xlink:href="#linear-gradient"/><linearGradient id="linear-gradient-3" x1="94.75" y1="94.63" x2="94.75" y2="168.1" xlink:href="#linear-gradient"/><linearGradient id="linear-gradient-4" x1="129.31" y1="95.27" x2="129.31" y2="113.58" xlink:href="#linear-gradient"/><linearGradient id="linear-gradient-5" x1="181.04" y1="122.42" x2="181.04" y2="141.01" xlink:href="#linear-gradient"/><linearGradient id="linear-gradient-6" x1="176.27" y1="149.54" x2="176.27" y2="168.13" xlink:href="#linear-gradient"/><linearGradient id="linear-gradient-7" x1="217.03" y1="95.27" x2="217.03" y2="168.74" xlink:href="#linear-gradient"/></defs><path class="cls-2" d="M181.61,270.18h-46.27C60.87,270.18,.5,209.81,.5,135.34S60.87,.5,135.34,.5h46.27c74.47,0,134.84,60.37,134.84,134.84s-60.37,134.84-134.84,134.84"/><path class="cls-1" d="M109.28,122.39c-4.45,0-8.26,3.2-9.02,7.59l-.05,.28c-.97,5.6,3.34,10.72,9.02,10.72h30.59c4.45,0,8.26-3.2,9.02-7.59l.05-.28c.97-5.6-3.34-10.72-9.02-10.72h-30.59Z"/><path class="cls-6" d="M64.12,94.63c-4.44,0-8.24,3.19-9.01,7.56l-9.73,55.16c-.99,5.6,3.32,10.74,9.02,10.74h80.67c4.45,0,8.26-3.2,9.02-7.59l.05-.28c.97-5.6-3.34-10.72-9.02-10.72h-55.15c-5.69,0-10-5.14-9.01-10.74l5.89-33.39c.99-5.6-3.32-10.74-9.01-10.74h-3.7Z"/><path class="cls-7" d="M114.02,95.27c-4.44,0-8.24,3.19-9.02,7.57-.99,5.61,3.32,10.74,9.02,10.74h30.58c4.44,0,8.24-3.19,9.01-7.57,.99-5.6-3.32-10.74-9.01-10.74h-30.58Z"/><path class="cls-4" d="M165.77,122.42c-4.45,0-8.26,3.2-9.02,7.59l-.05,.28c-.97,5.6,3.34,10.72,9.02,10.72h30.59c4.45,0,8.26-3.2,9.02-7.59l.05-.28c.97-5.6-3.34-10.72-9.02-10.72h-30.59Z"/><path class="cls-3" d="M161,149.54c-4.45,0-8.26,3.2-9.02,7.59l-.05,.28c-.97,5.6,3.34,10.72,9.02,10.72h30.59c4.45,0,8.26-3.2,9.02-7.59l.05-.28c.97-5.6-3.34-10.72-9.02-10.72h-30.59Z"/><path class="cls-5" d="M210.21,95.27v.03h-39.71c-4.44,0-8.24,3.19-9.02,7.56-.99,5.61,3.32,10.74,9.02,10.74h46.66c5.69,0,10,5.13,9.02,10.74l-5.91,33.65c-.98,5.6,3.33,10.74,9.02,10.74h3.43c4.45,0,8.25-3.19,9.02-7.57l7.02-39.98c.77-4.38,4.57-7.57,9.02-7.57h5.78c4.43,0,8.23-3.18,9.01-7.54v-.03c1.01-5.61-3.31-10.76-9.01-10.76h-53.34Z"/></svg>