<?xml version="1.0" encoding="UTF-8"?><svg id="Layer_1" xmlns="http://www.w3.org/2000/svg" width="315.95" height="269.7" xmlns:xlink="http://www.w3.org/1999/xlink" viewBox="0 0 315.95 269.7"><defs><style>.cls-1{fill:url(#linear-gradient-2);}.cls-2{fill:url(#linear-gradient-6);}.cls-3{fill:#0a1b27;}.cls-4{fill:url(#linear-gradient-5);}.cls-5{fill:url(#linear-gradient-7);}.cls-6{fill:url(#linear-gradient-3);}.cls-7{fill:url(#linear-gradient);}.cls-8{fill:url(#linear-gradient-4);}</style><linearGradient id="linear-gradient" x1="157.98" y1="0" x2="157.98" y2="269.7" gradientUnits="userSpaceOnUse"><stop offset="0" stop-color="#61c19b"/><stop offset="1" stop-color="#0b1b27"/></linearGradient><linearGradient id="linear-gradient-2" x1="124.05" y1="149.11" x2="124.05" y2="130.52" gradientTransform="translate(0 271) scale(1 -1)" gradientUnits="userSpaceOnUse"><stop offset="0" stop-color="#64c18d"/><stop offset=".21" stop-color="#61c196"/><stop offset=".55" stop-color="#5bc3af"/><stop offset=".96" stop-color="#53c6d5"/><stop offset="1" stop-color="#53c6d5"/><stop offset="1" stop-color="#53c6d5"/></linearGradient><linearGradient id="linear-gradient-3" x1="94.26" y1="176.87" x2="94.26" y2="103.41" gradientTransform="translate(0 271) scale(1 -1)" gradientUnits="userSpaceOnUse"><stop offset="0" stop-color="#64c18d"/><stop offset=".21" stop-color="#61c196"/><stop offset=".55" stop-color="#5bc3af"/><stop offset=".96" stop-color="#53c6d5"/><stop offset="1" stop-color="#53c6d5"/><stop offset="1" stop-color="#53c6d5"/></linearGradient><linearGradient id="linear-gradient-4" x1="128.81" y1="176.23" x2="128.81" y2="157.92" gradientTransform="translate(0 271) scale(1 -1)" gradientUnits="userSpaceOnUse"><stop offset="0" stop-color="#64c18d"/><stop offset=".21" stop-color="#61c196"/><stop offset=".55" stop-color="#5bc3af"/><stop offset=".96" stop-color="#53c6d5"/><stop offset="1" stop-color="#53c6d5"/><stop offset="1" stop-color="#53c6d5"/></linearGradient><linearGradient id="linear-gradient-5" x1="180.54" y1="149.08" x2="180.54" y2="130.49" gradientTransform="translate(0 271) scale(1 -1)" gradientUnits="userSpaceOnUse"><stop offset="0" stop-color="#64c18d"/><stop offset=".21" stop-color="#61c196"/><stop offset=".55" stop-color="#5bc3af"/><stop offset=".96" stop-color="#53c6d5"/><stop offset="1" stop-color="#53c6d5"/><stop offset="1" stop-color="#53c6d5"/></linearGradient><linearGradient id="linear-gradient-6" x1="175.77" y1="121.96" x2="175.77" y2="103.37" gradientTransform="translate(0 271) scale(1 -1)" gradientUnits="userSpaceOnUse"><stop offset="0" stop-color="#64c18d"/><stop offset=".21" stop-color="#61c196"/><stop offset=".55" stop-color="#5bc3af"/><stop offset=".96" stop-color="#53c6d5"/><stop offset="1" stop-color="#53c6d5"/><stop offset="1" stop-color="#53c6d5"/></linearGradient><linearGradient id="linear-gradient-7" x1="216.53" y1="176.23" x2="216.53" y2="102.77" gradientTransform="translate(0 271) scale(1 -1)" gradientUnits="userSpaceOnUse"><stop offset="0" stop-color="#64c18d"/><stop offset=".21" stop-color="#61c196"/><stop offset=".55" stop-color="#5bc3af"/><stop offset=".96" stop-color="#53c6d5"/><stop offset="1" stop-color="#53c6d5"/><stop offset="1" stop-color="#53c6d5"/></linearGradient></defs><g><path class="cls-3" d="M134.84,269.68C60.37,269.68,0,209.31,0,134.84S60.37,0,134.84,0h46.27C255.58,0,315.95,60.37,315.95,134.84s-60.37,134.84-134.84,134.84c0,0-46.27,.05-46.27,0Z"/><path class="cls-7" d="M181.11,2c35.48,0,68.84,13.82,93.93,38.91,25.09,25.09,38.91,58.45,38.91,93.93s-13.82,68.84-38.91,93.93c-25.09,25.09-58.45,38.91-93.93,38.91,0,0-20.56,.02-34.27,.02-5.37,0-8.36,0-10,0v-.02h-2c-35.48,0-68.84-13.82-93.93-38.91C15.82,203.68,2,170.32,2,134.84S15.82,66,40.91,40.91C66,15.82,99.36,2,134.84,2h46.27m0-2h-46.27C60.37,0,0,60.37,0,134.84s60.37,134.84,134.84,134.84c0,.02,5.14,.02,12,.02,13.71,0,34.27-.02,34.27-.02,74.47,0,134.84-60.37,134.84-134.84S255.58,0,181.11,0h0Z"/></g><path class="cls-1" d="M108.78,121.89c-4.45,0-8.26,3.2-9.02,7.59l-.05,.28c-.97,5.6,3.34,10.72,9.02,10.72h30.59c4.45,0,8.26-3.2,9.02-7.59l.05-.28c.97-5.6-3.34-10.72-9.02-10.72h-30.59Z"/><path class="cls-6" d="M63.62,94.13c-4.44,0-8.24,3.19-9.01,7.56l-9.73,55.16c-.99,5.6,3.32,10.74,9.02,10.74h80.67c4.45,0,8.26-3.2,9.02-7.59l.05-.28c.97-5.6-3.34-10.72-9.02-10.72h-55.15c-5.69,0-10-5.14-9.01-10.74l5.89-33.39c.99-5.6-3.32-10.74-9.01-10.74h-3.72Z"/><path class="cls-8" d="M113.52,94.77c-4.44,0-8.24,3.19-9.02,7.57-.99,5.61,3.32,10.74,9.02,10.74h30.58c4.44,0,8.24-3.19,9.01-7.57,.99-5.6-3.32-10.74-9.01-10.74h-30.58Z"/><path class="cls-4" d="M165.27,121.92c-4.45,0-8.26,3.2-9.02,7.59l-.05,.28c-.97,5.6,3.34,10.72,9.02,10.72h30.59c4.45,0,8.26-3.2,9.02-7.59l.05-.28c.97-5.6-3.34-10.72-9.02-10.72h-30.59Z"/><path class="cls-2" d="M160.5,149.04c-4.45,0-8.26,3.2-9.02,7.59l-.05,.28c-.97,5.6,3.34,10.72,9.02,10.72h30.59c4.45,0,8.26-3.2,9.02-7.59l.05-.28c.97-5.6-3.34-10.72-9.02-10.72h-30.59Z"/><path class="cls-5" d="M209.71,94.77v.03h-39.71c-4.44,0-8.24,3.19-9.02,7.56-.99,5.61,3.32,10.74,9.02,10.74h46.66c5.69,0,10,5.13,9.02,10.74l-5.91,33.65c-.98,5.6,3.33,10.74,9.02,10.74h3.43c4.45,0,8.25-3.19,9.02-7.57l7.02-39.98c.77-4.38,4.57-7.57,9.02-7.57h5.78c4.43,0,8.23-3.18,9.01-7.54v-.03c1.01-5.61-3.31-10.76-9.01-10.76h-53.35Z"/></svg>